<mxfile host="Electron" agent="Mozilla/5.0 (X11; Linux x86_64) AppleWebKit/537.36 (KHTML, like Gecko) draw.io/26.0.4 Chrome/128.0.6613.186 Electron/32.2.5 Safari/537.36" version="26.0.4">
  <diagram name="Page-1" id="cu7PPnlf8wr2hxZIMgW1">
    <mxGraphModel dx="2074" dy="1230" grid="1" gridSize="10" guides="1" tooltips="1" connect="1" arrows="1" fold="1" page="1" pageScale="1" pageWidth="850" pageHeight="1100" math="0" shadow="0">
      <root>
        <mxCell id="0" />
        <mxCell id="1" parent="0" />
        <mxCell id="OBZbjnxqtqfFN36B-MY2-1" value="" style="group" vertex="1" connectable="0" parent="1">
          <mxGeometry x="880" y="40" width="100" height="300" as="geometry" />
        </mxCell>
        <mxCell id="OMWDtq2HVvsibdkuUq4M-1" value="KNMI open data" style="shape=datastore;whiteSpace=wrap;html=1;" parent="OBZbjnxqtqfFN36B-MY2-1" vertex="1">
          <mxGeometry width="100" height="29.032258064516128" as="geometry" />
        </mxCell>
        <mxCell id="OMWDtq2HVvsibdkuUq4M-13" value="" style="endArrow=none;dashed=1;html=1;rounded=0;entryX=0.5;entryY=1;entryDx=0;entryDy=0;" parent="OBZbjnxqtqfFN36B-MY2-1" edge="1">
          <mxGeometry width="50" height="50" relative="1" as="geometry">
            <mxPoint x="49.5" y="300" as="sourcePoint" />
            <mxPoint x="49.5" y="29.032258064516128" as="targetPoint" />
          </mxGeometry>
        </mxCell>
        <mxCell id="OMWDtq2HVvsibdkuUq4M-24" style="edgeStyle=orthogonalEdgeStyle;rounded=0;orthogonalLoop=1;jettySize=auto;html=1;" parent="OBZbjnxqtqfFN36B-MY2-1" edge="1">
          <mxGeometry relative="1" as="geometry">
            <mxPoint x="50" y="54.193548387096776" as="sourcePoint" />
            <mxPoint x="-80" y="54.193548387096776" as="targetPoint" />
            <Array as="points">
              <mxPoint x="20" y="54.193548387096776" />
              <mxPoint x="20" y="54.193548387096776" />
            </Array>
          </mxGeometry>
        </mxCell>
        <mxCell id="OBZbjnxqtqfFN36B-MY2-2" value="" style="group" vertex="1" connectable="0" parent="1">
          <mxGeometry x="1142" y="40" width="110" height="300" as="geometry" />
        </mxCell>
        <mxCell id="OMWDtq2HVvsibdkuUq4M-2" value="scruffy.lab.uvalight &lt;br&gt;Minio object store" style="shape=datastore;whiteSpace=wrap;html=1;" parent="OBZbjnxqtqfFN36B-MY2-2" vertex="1">
          <mxGeometry y="-20" width="110" height="50" as="geometry" />
        </mxCell>
        <mxCell id="OMWDtq2HVvsibdkuUq4M-15" value="" style="endArrow=none;dashed=1;html=1;rounded=0;entryX=0.5;entryY=1;entryDx=0;entryDy=0;" parent="OBZbjnxqtqfFN36B-MY2-2" edge="1">
          <mxGeometry width="50" height="50" relative="1" as="geometry">
            <mxPoint x="49.5" y="300" as="sourcePoint" />
            <mxPoint x="49.5" y="29.032258064516128" as="targetPoint" />
          </mxGeometry>
        </mxCell>
        <mxCell id="OMWDtq2HVvsibdkuUq4M-23" style="edgeStyle=orthogonalEdgeStyle;rounded=0;orthogonalLoop=1;jettySize=auto;html=1;" parent="OBZbjnxqtqfFN36B-MY2-2" edge="1">
          <mxGeometry relative="1" as="geometry">
            <mxPoint x="188" y="111" as="sourcePoint" />
            <mxPoint x="48" y="111.29032258064517" as="targetPoint" />
            <Array as="points">
              <mxPoint x="128" y="111.29032258064517" />
              <mxPoint x="128" y="111.29032258064517" />
            </Array>
          </mxGeometry>
        </mxCell>
        <mxCell id="OMWDtq2HVvsibdkuUq4M-22" value="" style="endArrow=classic;html=1;rounded=0;" parent="OBZbjnxqtqfFN36B-MY2-2" edge="1">
          <mxGeometry width="50" height="50" relative="1" as="geometry">
            <mxPoint x="48" y="95" as="sourcePoint" />
            <mxPoint x="188" y="95.09677419354838" as="targetPoint" />
          </mxGeometry>
        </mxCell>
        <mxCell id="OBZbjnxqtqfFN36B-MY2-12" value="" style="endArrow=classic;html=1;rounded=0;" edge="1" parent="OBZbjnxqtqfFN36B-MY2-2">
          <mxGeometry width="50" height="50" relative="1" as="geometry">
            <mxPoint x="188" y="200" as="sourcePoint" />
            <mxPoint x="48" y="200" as="targetPoint" />
          </mxGeometry>
        </mxCell>
        <mxCell id="OBZbjnxqtqfFN36B-MY2-3" value="" style="group" vertex="1" connectable="0" parent="1">
          <mxGeometry x="1270" y="40" width="260" height="300" as="geometry" />
        </mxCell>
        <mxCell id="OMWDtq2HVvsibdkuUq4M-18" value="" style="endArrow=none;dashed=1;html=1;rounded=0;entryX=0.5;entryY=1;entryDx=0;entryDy=0;" parent="OBZbjnxqtqfFN36B-MY2-3" edge="1">
          <mxGeometry width="50" height="50" relative="1" as="geometry">
            <mxPoint x="59.5" y="300" as="sourcePoint" />
            <mxPoint x="59.5" y="29.032258064516128" as="targetPoint" />
          </mxGeometry>
        </mxCell>
        <mxCell id="OMWDtq2HVvsibdkuUq4M-20" value="PVOL-VP-converter" style="rounded=0;whiteSpace=wrap;html=1;fillColor=#ffe6cc;strokeColor=#d79b00;" parent="OBZbjnxqtqfFN36B-MY2-3" vertex="1">
          <mxGeometry width="120" height="29.032258064516128" as="geometry" />
        </mxCell>
        <mxCell id="OBZbjnxqtqfFN36B-MY2-4" value="" style="group" vertex="1" connectable="0" parent="OBZbjnxqtqfFN36B-MY2-3">
          <mxGeometry x="140" width="120" height="300" as="geometry" />
        </mxCell>
        <mxCell id="OMWDtq2HVvsibdkuUq4M-4" value="Vol2bird" style="rounded=0;whiteSpace=wrap;html=1;fillColor=#fff2cc;strokeColor=#d6b656;" parent="OBZbjnxqtqfFN36B-MY2-4" vertex="1">
          <mxGeometry width="120" height="29.032258064516128" as="geometry" />
        </mxCell>
        <mxCell id="OMWDtq2HVvsibdkuUq4M-21" value="" style="endArrow=none;dashed=1;html=1;rounded=0;entryX=0.5;entryY=1;entryDx=0;entryDy=0;" parent="OBZbjnxqtqfFN36B-MY2-4" edge="1">
          <mxGeometry width="50" height="50" relative="1" as="geometry">
            <mxPoint x="59.5" y="300" as="sourcePoint" />
            <mxPoint x="59.5" y="29.032258064516128" as="targetPoint" />
          </mxGeometry>
        </mxCell>
        <mxCell id="OBZbjnxqtqfFN36B-MY2-10" value="" style="endArrow=classic;html=1;rounded=0;" edge="1" parent="OBZbjnxqtqfFN36B-MY2-3">
          <mxGeometry width="50" height="50" relative="1" as="geometry">
            <mxPoint x="200" y="180" as="sourcePoint" />
            <mxPoint x="60" y="180" as="targetPoint" />
          </mxGeometry>
        </mxCell>
        <mxCell id="OBZbjnxqtqfFN36B-MY2-7" value="" style="group" vertex="1" connectable="0" parent="1">
          <mxGeometry x="740" y="40" width="120" height="300" as="geometry" />
        </mxCell>
        <mxCell id="OBZbjnxqtqfFN36B-MY2-5" value="Download-KNMI" style="rounded=0;whiteSpace=wrap;html=1;fillColor=#ffe6cc;strokeColor=#d79b00;" vertex="1" parent="OBZbjnxqtqfFN36B-MY2-7">
          <mxGeometry width="120" height="29.508196721311474" as="geometry" />
        </mxCell>
        <mxCell id="OBZbjnxqtqfFN36B-MY2-6" value="" style="endArrow=none;dashed=1;html=1;rounded=0;entryX=0.5;entryY=1;entryDx=0;entryDy=0;" edge="1" parent="OBZbjnxqtqfFN36B-MY2-7" target="OBZbjnxqtqfFN36B-MY2-5">
          <mxGeometry width="50" height="50" relative="1" as="geometry">
            <mxPoint x="60" y="300" as="sourcePoint" />
            <mxPoint x="560" y="275.40983606557376" as="targetPoint" />
          </mxGeometry>
        </mxCell>
        <mxCell id="OMWDtq2HVvsibdkuUq4M-14" value="" style="endArrow=classic;html=1;rounded=0;" parent="OBZbjnxqtqfFN36B-MY2-7" edge="1">
          <mxGeometry width="50" height="50" relative="1" as="geometry">
            <mxPoint x="60" y="44.26229508196721" as="sourcePoint" />
            <mxPoint x="190" y="44.26229508196721" as="targetPoint" />
          </mxGeometry>
        </mxCell>
        <mxCell id="OMWDtq2HVvsibdkuUq4M-16" value="" style="endArrow=classic;html=1;rounded=0;" parent="OBZbjnxqtqfFN36B-MY2-7" edge="1">
          <mxGeometry width="50" height="50" relative="1" as="geometry">
            <mxPoint x="60" y="68.85245901639344" as="sourcePoint" />
            <mxPoint x="320" y="68.85245901639344" as="targetPoint" />
          </mxGeometry>
        </mxCell>
        <mxCell id="OBZbjnxqtqfFN36B-MY2-8" value="" style="group" vertex="1" connectable="0" parent="1">
          <mxGeometry x="1000" y="40" width="120" height="300" as="geometry" />
        </mxCell>
        <mxCell id="OMWDtq2HVvsibdkuUq4M-3" value="KNMI-to-ODIM-converter" style="rounded=0;whiteSpace=wrap;html=1;fillColor=#ffe6cc;strokeColor=#d79b00;" parent="OBZbjnxqtqfFN36B-MY2-8" vertex="1">
          <mxGeometry width="120" height="29.032258064516128" as="geometry" />
        </mxCell>
        <mxCell id="OMWDtq2HVvsibdkuUq4M-12" value="" style="endArrow=none;dashed=1;html=1;rounded=0;entryX=0.5;entryY=1;entryDx=0;entryDy=0;" parent="OBZbjnxqtqfFN36B-MY2-8" target="OMWDtq2HVvsibdkuUq4M-3" edge="1">
          <mxGeometry width="50" height="50" relative="1" as="geometry">
            <mxPoint x="60" y="300" as="sourcePoint" />
            <mxPoint x="-40" y="48.38709677419355" as="targetPoint" />
          </mxGeometry>
        </mxCell>
        <mxCell id="OMWDtq2HVvsibdkuUq4M-19" value="" style="endArrow=classic;html=1;rounded=0;" parent="OBZbjnxqtqfFN36B-MY2-8" edge="1">
          <mxGeometry width="50" height="50" relative="1" as="geometry">
            <mxPoint x="60" y="82.41935483870968" as="sourcePoint" />
            <mxPoint x="190" y="82.41935483870968" as="targetPoint" />
          </mxGeometry>
        </mxCell>
        <mxCell id="OBZbjnxqtqfFN36B-MY2-9" value="" style="endArrow=classic;html=1;rounded=0;" edge="1" parent="1">
          <mxGeometry width="50" height="50" relative="1" as="geometry">
            <mxPoint x="1330" y="196" as="sourcePoint" />
            <mxPoint x="1470" y="196" as="targetPoint" />
          </mxGeometry>
        </mxCell>
      </root>
    </mxGraphModel>
  </diagram>
</mxfile>
